<svg width="98" height="98" xmlns="http://www.w3.org/2000/svg" xmlns:xlink="http://www.w3.org/1999/xlink" xml:space="preserve" overflow="hidden"><defs><clipPath id="clip0"><path d="M193.928 104.184C189.38 78.0673 206.866 53.2093 232.983 48.6622 259.1 44.1152 283.958 61.6009 288.505 87.7177 293.052 113.834 275.566 138.692 249.449 143.239 223.333 147.787 198.475 130.301 193.928 104.184Z" fill-rule="evenodd" clip-rule="evenodd"/></clipPath><clipPath id="clip1"><path d="M185.694 56.8954 280.272 40.429 296.738 135.006 202.161 151.473Z" fill-rule="evenodd" clip-rule="evenodd"/></clipPath><clipPath id="clip2"><path d="M185.694 56.8954 280.272 40.429 296.738 135.006 202.161 151.473Z" fill-rule="evenodd" clip-rule="evenodd"/></clipPath></defs><g transform="translate(-192 -46)"><g><g clip-path="url(#clip0)"><g clip-path="url(#clip1)"><g clip-path="url(#clip2)"><path d="M270.388 77.3515 236.385 91.93 241.495 121.278C239.448 121.229 237.429 121.76 235.671 122.81 231.666 125.111 229.667 129.134 231.148 131.809 232.628 134.485 237.163 134.822 241.163 132.492 244.781 130.42 246.374 126.509 245.993 124.322L241.045 95.8995 267.496 84.5848 271.801 109.313C269.71 109.258 267.646 109.8 265.851 110.877 261.757 113.244 259.697 117.389 261.274 120.149 262.851 122.91 267.443 123.226 271.549 120.867 275.022 118.892 277.007 115.715 276.687 113.121Z" fill="#0F3466" fill-rule="nonzero" fill-opacity="1"/><path d="M221.761 68.2778C220.795 67.8627 219.939 67.2304 219.257 66.4299L218.942 64.6171C218.752 63.5289 217.716 62.8004 216.628 62.9898 215.54 63.1793 214.811 64.215 215.001 65.3033L220.179 95.0458C218.215 95.0418 216.286 95.5704 214.599 96.5757 210.592 98.8668 208.593 102.889 210.075 105.575 211.558 108.26 216.101 108.586 220.101 106.255 222.868 104.657 224.696 102.217 225.027 99.9774L221.409 79.2C221.712 79.362 222.025 79.5042 222.346 79.6256 229.604 82.4222 227.072 89.2781 230.289 88.7484 234.422 88.0593 231.932 72.7697 221.761 68.2778Z" fill="#0F3466" fill-rule="nonzero" fill-opacity="1"/></g></g></g></g></g></svg>