<svg width="97" height="98" xmlns="http://www.w3.org/2000/svg" xmlns:xlink="http://www.w3.org/1999/xlink" xml:space="preserve" overflow="hidden"><g transform="translate(-509 -14)"><g><g><g><g><path d="M563.5 70.7C559.9 69.1 556.6 66.7 554 63.5 552.5 61.7 551.3 59.8 550.4 57.7L518 61.9 520.7 83.7C522.2 95.8 533.2 104.3 545.3 102.8 557.4 101.3 565.9 90.3 564.4 78.2L563.5 70.7ZM545.6 68.7C546.2 67.8 547.4 67.5 548.4 68L553.1 70.9C554 71.5 554.3 72.7 553.8 73.7 553.4 74.3 552.8 74.7 552.1 74.7 551.7 74.7 551.4 74.6 551.1 74.4L546.4 71.5C545.4 70.9 545.1 69.7 545.6 68.7M530 74 533.6 69.9C534.3 69.1 535.6 69 536.4 69.7 537.2 70.4 537.3 71.7 536.6 72.5L533 76.6C532.6 77 532.1 77.3 531.5 77.3 531 77.3 530.6 77.1 530.2 76.8 529.4 76.1 529.3 74.8 530 74M555.2 89.4C554.3 90.1 553.1 89.9 552.4 89 550.2 86.1 546.7 84.6 543.1 85.1 539.5 85.5 536.5 87.9 535.1 91.2 534.8 92 534 92.4 533.3 92.4 533 92.4 532.8 92.3 532.5 92.2 531.5 91.8 531 90.6 531.4 89.6 533.4 85 537.7 81.7 542.6 81.1 547.6 80.5 552.5 82.6 555.6 86.6 556.3 87.5 556.1 88.8 555.2 89.4" fill="#0F3466" fill-rule="nonzero" fill-opacity="1"/><path d="M554.2 23 552.2 44.9C551 57 559.9 67.8 572 68.9 584.1 70 594.8 61.1 595.9 49L597.9 27.1 554.2 23ZM564.1 35.2 569.6 35.7C570.7 35.8 571.5 36.8 571.4 37.9 571.3 38.9 570.4 39.7 569.4 39.7 569.3 39.7 569.3 39.7 569.2 39.7L563.7 39.2C562.6 39.1 561.8 38.1 561.9 37 562 35.9 563 35.1 564.1 35.2M585.6 54.6C582.9 58.3 578.6 60.6 574.1 60.6 573.7 60.6 573.2 60.6 572.8 60.5 567.8 60 563.4 56.9 561.3 52.4 560.8 51.4 561.3 50.2 562.3 49.7 563.3 49.2 564.5 49.7 565 50.7 566.5 54 569.7 56.2 573.2 56.5 576.8 56.8 580.3 55.2 582.4 52.3 583 51.4 584.3 51.2 585.2 51.8 586 52.4 586.2 53.7 585.6 54.6M585.8 41.2C585.7 41.2 585.7 41.2 585.6 41.2L580.1 40.7C579 40.6 578.2 39.6 578.3 38.5 578.4 37.4 579.4 36.6 580.5 36.7L586 37.2C587.1 37.3 587.9 38.3 587.8 39.4 587.7 40.4 586.8 41.2 585.8 41.2" fill="#0F3466" fill-rule="nonzero" fill-opacity="1"/></g></g></g></g></g></svg>