<svg width="98" height="99" xmlns="http://www.w3.org/2000/svg" xmlns:xlink="http://www.w3.org/1999/xlink" xml:space="preserve" overflow="hidden"><defs><clipPath id="clip0"><path d="M290.896 104.315C276.772 81.881 283.508 52.2449 305.941 38.1206 328.375 23.9962 358.011 30.7322 372.135 53.1657 386.26 75.5993 379.524 105.235 357.09 119.36 334.657 133.484 305.021 126.748 290.896 104.315Z" fill-rule="evenodd" clip-rule="evenodd"/></clipPath><clipPath id="clip1"><path d="M265.322 63.695 346.561 12.5462 397.71 93.7853 316.471 144.934Z" fill-rule="evenodd" clip-rule="evenodd"/></clipPath><clipPath id="clip2"><path d="M265.322 63.695 346.561 12.5462 397.71 93.7853 316.471 144.934Z" fill-rule="evenodd" clip-rule="evenodd"/></clipPath></defs><g transform="translate(-282 -29)"><g><g clip-path="url(#clip0)"><g clip-path="url(#clip1)"><g clip-path="url(#clip2)"><path d="M297.024 82.1402C294.965 87.6909 293.72 92.8466 293.15 96.6327 292.548 100.557 294.946 104.365 298.798 105.603 302.458 106.725 307.645 107.831 313.541 108.374L297.024 82.1402Z" fill="#0F3466" fill-rule="nonzero" fill-opacity="1"/><path d="M364.234 51.8775C360.573 50.7554 355.386 49.6489 349.491 49.1066L365.954 75.2555C368.014 69.7048 369.258 64.5491 369.829 60.763 370.515 56.7857 368.171 53.0623 364.234 51.8775Z" fill="#0F3466" fill-rule="nonzero" fill-opacity="1"/><path d="M316.598 55.0454C309.151 59.7341 303.675 67.5538 299.917 75.4738L320.856 108.731C329.622 108.766 339.041 107.208 346.488 102.52 353.935 97.8309 359.41 90.0112 363.168 82.0911L342.229 48.8338C333.463 48.7992 324.044 50.3568 316.598 55.0454ZM349.412 73.381C349.998 74.3118 349.716 75.553 348.785 76.139 347.854 76.7251 346.613 76.443 346.027 75.5122L344.429 72.9734 341.044 75.1046 342.642 77.6434C343.228 78.5742 342.946 79.8154 342.015 80.4014 341.085 80.9875 339.843 80.7054 339.257 79.7746L337.659 77.2358 334.274 79.367 335.872 81.9058C336.458 82.8366 336.176 84.0778 335.246 84.6638 334.315 85.2499 333.074 84.9678 332.487 84.037L330.889 81.4982 327.504 83.6294 329.102 86.1682C329.689 87.099 329.406 88.3402 328.476 88.9262 327.545 89.5123 326.304 89.2302 325.717 88.2994L324.119 85.7606 320.734 87.8918 322.333 90.4306C322.919 91.3614 322.637 92.6026 321.706 93.1886 320.775 93.7747 319.534 93.4926 318.948 92.5618L313.62 84.0994C313.033 83.1685 313.316 81.9274 314.246 81.3413 315.177 80.7552 316.418 81.0373 317.005 81.9682L318.603 84.5069 321.988 82.3757 320.389 79.837C319.803 78.9061 320.086 77.6649 321.016 77.0789 321.947 76.4928 323.188 76.7749 323.774 77.7057L325.373 80.2445 328.758 78.1133 327.159 75.5746C326.573 74.6437 326.855 73.4025 327.786 72.8165 328.717 72.2304 329.958 72.5125 330.544 73.4434L332.143 75.9821 335.528 73.8509 333.929 71.3121C333.343 70.3813 333.625 69.1401 334.556 68.5541 335.487 67.968 336.728 68.2501 337.314 69.1809L338.913 71.7197 342.298 69.5885 340.699 67.0498C340.113 66.1189 340.395 64.8777 341.326 64.2917 342.257 63.7056 343.498 63.9877 344.084 64.9185L349.412 73.381Z" fill="#0F3466" fill-rule="nonzero" fill-opacity="1"/></g></g></g></g></g></svg>